<mxfile host="app.diagrams.net" agent="Mozilla/5.0 (Windows NT 10.0; Win64; x64) AppleWebKit/537.36 (KHTML, like Gecko) Chrome/138.0.0.0 Safari/537.36 Edg/138.0.0.0" version="27.1.6">
  <diagram name="Page-1" id="WyO3LpVJ7yU6CaVVX3u4">
    <mxGraphModel dx="981" dy="765" grid="1" gridSize="10" guides="1" tooltips="1" connect="1" arrows="1" fold="1" page="1" pageScale="1" pageWidth="850" pageHeight="1100" math="0" shadow="0">
      <root>
        <mxCell id="0" />
        <mxCell id="1" parent="0" />
        <mxCell id="48SG3sQZl2NBpn9V5cue-41" value="DeploymentTarget1" style="whiteSpace=wrap;strokeWidth=2;verticalAlign=top;" vertex="1" parent="1">
          <mxGeometry x="30" y="30" width="579" height="669" as="geometry" />
        </mxCell>
        <mxCell id="48SG3sQZl2NBpn9V5cue-48" value="SERVIDOR BD" style="whiteSpace=wrap;strokeWidth=2;" vertex="1" parent="48SG3sQZl2NBpn9V5cue-41">
          <mxGeometry x="356" y="258" width="211" height="212" as="geometry" />
        </mxCell>
        <mxCell id="48SG3sQZl2NBpn9V5cue-43" value="REPOSITORIO DOCUMENTOS" style="whiteSpace=wrap;strokeWidth=2;" vertex="1" parent="48SG3sQZl2NBpn9V5cue-41">
          <mxGeometry x="36" y="450" width="239" height="189" as="geometry" />
        </mxCell>
        <mxCell id="48SG3sQZl2NBpn9V5cue-47" value="SERVIDOR WEB" style="whiteSpace=wrap;strokeWidth=2;" vertex="1" parent="48SG3sQZl2NBpn9V5cue-41">
          <mxGeometry x="34" y="45" width="303" height="366" as="geometry" />
        </mxCell>
        <mxCell id="48SG3sQZl2NBpn9V5cue-42" value="manual usuario&#xa;&amp;lt;&amp;gt;" style="whiteSpace=wrap;strokeWidth=2;" vertex="1" parent="48SG3sQZl2NBpn9V5cue-41">
          <mxGeometry x="71" y="450" width="169" height="78" as="geometry" />
        </mxCell>
        <mxCell id="48SG3sQZl2NBpn9V5cue-44" value="datasource_escuela&#xa;&amp;lt;" style="whiteSpace=wrap;strokeWidth=2;" vertex="1" parent="48SG3sQZl2NBpn9V5cue-41">
          <mxGeometry x="100" y="83" width="201" height="78" as="geometry" />
        </mxCell>
        <mxCell id="48SG3sQZl2NBpn9V5cue-45" value="BD_escuela&#xa;&amp;lt;&amp;gt;" style="whiteSpace=wrap;strokeWidth=2;" vertex="1" parent="48SG3sQZl2NBpn9V5cue-41">
          <mxGeometry x="391" y="382" width="141" height="78" as="geometry" />
        </mxCell>
        <mxCell id="48SG3sQZl2NBpn9V5cue-46" value="escuela.war&#xa;&amp;lt;&amp;gt;" style="whiteSpace=wrap;strokeWidth=2;" vertex="1" parent="48SG3sQZl2NBpn9V5cue-41">
          <mxGeometry x="82" y="296" width="146" height="78" as="geometry" />
        </mxCell>
        <mxCell id="48SG3sQZl2NBpn9V5cue-49" value="" style="curved=1;dashed=1;dashPattern=2 3;startArrow=none;endArrow=block;exitX=0.63;exitY=1;entryX=0;entryY=0.16;rounded=0;" edge="1" parent="48SG3sQZl2NBpn9V5cue-41" source="48SG3sQZl2NBpn9V5cue-44" target="48SG3sQZl2NBpn9V5cue-45">
          <mxGeometry relative="1" as="geometry">
            <Array as="points">
              <mxPoint x="259" y="210" />
              <mxPoint x="259" y="258" />
            </Array>
          </mxGeometry>
        </mxCell>
        <mxCell id="48SG3sQZl2NBpn9V5cue-50" value="" style="curved=1;dashed=1;dashPattern=2 3;startArrow=none;endArrow=block;exitX=0.5;exitY=1;entryX=0.5;entryY=0;rounded=0;" edge="1" parent="48SG3sQZl2NBpn9V5cue-41" source="48SG3sQZl2NBpn9V5cue-46" target="48SG3sQZl2NBpn9V5cue-42">
          <mxGeometry relative="1" as="geometry">
            <Array as="points" />
          </mxGeometry>
        </mxCell>
        <mxCell id="48SG3sQZl2NBpn9V5cue-51" value="{Time constraint 1}" style="curved=1;startArrow=none;endArrow=block;exitX=0.4;exitY=1;entryX=0.5;entryY=0;rounded=0;" edge="1" parent="48SG3sQZl2NBpn9V5cue-41" source="48SG3sQZl2NBpn9V5cue-44" target="48SG3sQZl2NBpn9V5cue-46">
          <mxGeometry relative="1" as="geometry">
            <Array as="points">
              <mxPoint x="155" y="210" />
            </Array>
          </mxGeometry>
        </mxCell>
        <mxCell id="48SG3sQZl2NBpn9V5cue-52" value="DeploymentTarget1" style="verticalAlign=top;align=left;shape=cube;size=10;direction=south;fontStyle=0;html=1;boundedLbl=1;spacingLeft=5;whiteSpace=wrap;" vertex="1" parent="1">
          <mxGeometry x="650" y="191" width="230" height="290" as="geometry" />
        </mxCell>
        <mxCell id="48SG3sQZl2NBpn9V5cue-53" value="SERVIDOR WEB" style="verticalAlign=top;align=center;shape=cube;size=10;direction=south;html=1;boundedLbl=1;spacingLeft=5;whiteSpace=wrap;" vertex="1" parent="48SG3sQZl2NBpn9V5cue-52">
          <mxGeometry width="200" height="220" relative="1" as="geometry">
            <mxPoint x="10" y="50" as="offset" />
          </mxGeometry>
        </mxCell>
        <mxCell id="48SG3sQZl2NBpn9V5cue-59" value="«database»&lt;br&gt;&lt;b&gt;DB_empresa&lt;/b&gt;" style="html=1;dropTarget=0;whiteSpace=wrap;" vertex="1" parent="48SG3sQZl2NBpn9V5cue-52">
          <mxGeometry x="40" y="135" width="145" height="65" as="geometry" />
        </mxCell>
        <mxCell id="48SG3sQZl2NBpn9V5cue-60" value="" style="shape=module;jettyWidth=8;jettyHeight=4;" vertex="1" parent="48SG3sQZl2NBpn9V5cue-59">
          <mxGeometry x="1" width="20" height="20" relative="1" as="geometry">
            <mxPoint x="-27" y="7" as="offset" />
          </mxGeometry>
        </mxCell>
        <mxCell id="48SG3sQZl2NBpn9V5cue-84" value="" style="edgeStyle=orthogonalEdgeStyle;rounded=0;orthogonalLoop=1;jettySize=auto;html=1;" edge="1" parent="1" source="48SG3sQZl2NBpn9V5cue-66" target="48SG3sQZl2NBpn9V5cue-77">
          <mxGeometry relative="1" as="geometry" />
        </mxCell>
        <mxCell id="48SG3sQZl2NBpn9V5cue-66" value="DeploymentTarget1" style="verticalAlign=top;align=left;shape=cube;size=10;direction=south;fontStyle=0;html=1;boundedLbl=1;spacingLeft=5;whiteSpace=wrap;" vertex="1" parent="1">
          <mxGeometry x="1020" y="180" width="300" height="399" as="geometry" />
        </mxCell>
        <mxCell id="48SG3sQZl2NBpn9V5cue-67" value="SERVIDOR WEB" style="verticalAlign=top;align=center;shape=cube;size=10;direction=south;html=1;boundedLbl=1;spacingLeft=5;whiteSpace=wrap;" vertex="1" parent="48SG3sQZl2NBpn9V5cue-66">
          <mxGeometry width="250" height="310" relative="1" as="geometry">
            <mxPoint x="10" y="60" as="offset" />
          </mxGeometry>
        </mxCell>
        <mxCell id="48SG3sQZl2NBpn9V5cue-68" value="«script»&lt;br&gt;&lt;b&gt;datasource_empresa&lt;/b&gt;" style="html=1;dropTarget=0;whiteSpace=wrap;" vertex="1" parent="48SG3sQZl2NBpn9V5cue-66">
          <mxGeometry x="40.76" y="110" width="169.24" height="80" as="geometry" />
        </mxCell>
        <mxCell id="48SG3sQZl2NBpn9V5cue-69" value="" style="shape=module;jettyWidth=8;jettyHeight=4;" vertex="1" parent="48SG3sQZl2NBpn9V5cue-68">
          <mxGeometry x="1" width="20" height="20" relative="1" as="geometry">
            <mxPoint x="-27" y="7" as="offset" />
          </mxGeometry>
        </mxCell>
        <mxCell id="48SG3sQZl2NBpn9V5cue-71" value="«edu.escuela.servlet»&lt;br&gt;• AuthServlet.java&lt;br style=&quot;padding: 0px; margin: 0px;&quot;&gt;• AgendaServlet.java&lt;br style=&quot;padding: 0px; margin: 0px;&quot;&gt;• ChatBotServlet.java" style="html=1;dropTarget=0;whiteSpace=wrap;" vertex="1" parent="48SG3sQZl2NBpn9V5cue-66">
          <mxGeometry x="40.76" y="250" width="169.24" height="70" as="geometry" />
        </mxCell>
        <mxCell id="48SG3sQZl2NBpn9V5cue-72" value="" style="shape=module;jettyWidth=8;jettyHeight=4;" vertex="1" parent="48SG3sQZl2NBpn9V5cue-71">
          <mxGeometry x="1" width="20" height="20" relative="1" as="geometry">
            <mxPoint x="-27" y="7" as="offset" />
          </mxGeometry>
        </mxCell>
        <mxCell id="48SG3sQZl2NBpn9V5cue-76" style="edgeStyle=orthogonalEdgeStyle;rounded=0;orthogonalLoop=1;jettySize=auto;html=1;exitX=0.5;exitY=0;exitDx=0;exitDy=0;entryX=0.401;entryY=0.941;entryDx=0;entryDy=0;entryPerimeter=0;" edge="1" parent="48SG3sQZl2NBpn9V5cue-66" source="48SG3sQZl2NBpn9V5cue-71" target="48SG3sQZl2NBpn9V5cue-68">
          <mxGeometry relative="1" as="geometry" />
        </mxCell>
        <mxCell id="48SG3sQZl2NBpn9V5cue-75" style="edgeStyle=orthogonalEdgeStyle;rounded=0;orthogonalLoop=1;jettySize=auto;html=1;entryX=0.549;entryY=-0.012;entryDx=0;entryDy=0;entryPerimeter=0;" edge="1" parent="1" source="48SG3sQZl2NBpn9V5cue-67" target="48SG3sQZl2NBpn9V5cue-52">
          <mxGeometry relative="1" as="geometry" />
        </mxCell>
        <mxCell id="48SG3sQZl2NBpn9V5cue-77" value="DeploymentTarget1" style="verticalAlign=top;align=left;shape=cube;size=10;direction=south;fontStyle=0;html=1;boundedLbl=1;spacingLeft=5;whiteSpace=wrap;" vertex="1" parent="1">
          <mxGeometry x="1400" y="180" width="300" height="399" as="geometry" />
        </mxCell>
        <mxCell id="48SG3sQZl2NBpn9V5cue-78" value="SERVIDOR WEB" style="verticalAlign=top;align=center;shape=cube;size=10;direction=south;html=1;boundedLbl=1;spacingLeft=5;whiteSpace=wrap;" vertex="1" parent="48SG3sQZl2NBpn9V5cue-77">
          <mxGeometry width="250" height="310" relative="1" as="geometry">
            <mxPoint x="10" y="60" as="offset" />
          </mxGeometry>
        </mxCell>
        <mxCell id="48SG3sQZl2NBpn9V5cue-79" value="«script»&lt;br&gt;&lt;b&gt;datasource_empresa&lt;/b&gt;" style="html=1;dropTarget=0;whiteSpace=wrap;" vertex="1" parent="48SG3sQZl2NBpn9V5cue-77">
          <mxGeometry x="40.76" y="110" width="169.24" height="80" as="geometry" />
        </mxCell>
        <mxCell id="48SG3sQZl2NBpn9V5cue-80" value="" style="shape=module;jettyWidth=8;jettyHeight=4;" vertex="1" parent="48SG3sQZl2NBpn9V5cue-79">
          <mxGeometry x="1" width="20" height="20" relative="1" as="geometry">
            <mxPoint x="-27" y="7" as="offset" />
          </mxGeometry>
        </mxCell>
        <mxCell id="48SG3sQZl2NBpn9V5cue-81" value="«edu.escuela.servlet»&lt;br&gt;• AuthServlet.java&lt;br style=&quot;padding: 0px; margin: 0px;&quot;&gt;• AgendaServlet.java&lt;br style=&quot;padding: 0px; margin: 0px;&quot;&gt;• ChatBotServlet.java" style="html=1;dropTarget=0;whiteSpace=wrap;" vertex="1" parent="48SG3sQZl2NBpn9V5cue-77">
          <mxGeometry x="40.76" y="250" width="169.24" height="70" as="geometry" />
        </mxCell>
        <mxCell id="48SG3sQZl2NBpn9V5cue-82" value="" style="shape=module;jettyWidth=8;jettyHeight=4;" vertex="1" parent="48SG3sQZl2NBpn9V5cue-81">
          <mxGeometry x="1" width="20" height="20" relative="1" as="geometry">
            <mxPoint x="-27" y="7" as="offset" />
          </mxGeometry>
        </mxCell>
        <mxCell id="48SG3sQZl2NBpn9V5cue-83" style="edgeStyle=orthogonalEdgeStyle;rounded=0;orthogonalLoop=1;jettySize=auto;html=1;exitX=0.5;exitY=0;exitDx=0;exitDy=0;entryX=0.401;entryY=0.941;entryDx=0;entryDy=0;entryPerimeter=0;" edge="1" parent="48SG3sQZl2NBpn9V5cue-77" source="48SG3sQZl2NBpn9V5cue-81" target="48SG3sQZl2NBpn9V5cue-79">
          <mxGeometry relative="1" as="geometry" />
        </mxCell>
      </root>
    </mxGraphModel>
  </diagram>
</mxfile>
